<svg xmlns="http://www.w3.org/2000/svg" viewBox="330 10 477 260">
  <defs>
    <clipPath id="clip1_5_23" clipPathUnits="userSpaceOnUse">
      <rect x="330" y="10" width="477" height="260"/>
    </clipPath>
  </defs>
  <g clip-path="url(#clip1_5_23)">
    <path d="M432.36 13.7799C461.99 7.4799 493.8 11.9799 520.44 26.4399C533.48 33.3699 545.03 42.8299 555.15 53.5499C545.86 62.8499 536.55 72.1599 527.24 81.4599C517.99 71.5699 507.14 62.9999 494.57 57.7599C474.5 49.0799 451.23 48.1499 430.51 55.1499C410.23 61.8699 392.62 76.1999 381.82 94.6299C371.3 112.41 367.3 133.9 370.57 154.29C373.6 173.87 383.4 192.31 397.93 205.79C412.59 219.57 432.04 228.09 452.11 229.58C472.93 231.27 494.28 225.39 511.24 213.16C516.84 209.23 521.78 204.46 526.53 199.56C557.13 168.98 587.69 138.34 618.31 107.77C627.61 117.07 636.9 126.37 646.2 135.67C614.27 167.64 582.33 199.61 550.4 231.56C532.89 249.13 510.22 261.45 485.95 266.52C459.35 272.18 430.97 269.21 406.16 258.04C379.21 246.03 356.71 224.39 343.58 197.97C331.7 174.27 327.47 146.9 331.46 120.73C335.42 93.9399 348.14 68.5499 367.23 49.3399C384.83 31.4399 407.78 18.8799 432.36 13.7799Z" fill="#294B95"/>
    <path d="M587.84 47.2999C610.66 24.9799 642.08 11.8199 673.99 11.0599C706.6 10.0099 739.43 21.9 763.66 43.7799C786.95 64.4799 802.37 93.8199 805.86 124.81C809.57 155.56 801.92 187.58 784.26 213.07C768.45 236.12 745.11 254 718.53 262.79C685.63 273.81 648.29 270.94 617.61 254.66C604.14 247.67 592.21 238.05 581.8 227.05C591.09 217.73 600.43 208.46 609.75 199.17C619.13 209.19 630.21 217.8 643 223C662.88 231.37 685.8 232.15 706.23 225.24C730.61 217.13 751 197.93 760.65 174.11C768.86 154.12 769.46 131.15 762.36 110.75C752.78 82.5199 728.18 59.9999 699.15 53.0999C669.78 45.6299 636.92 54.3499 615.31 75.6399C580.57 110.34 545.88 145.08 511.19 179.82C501.84 170.53 492.48 161.25 483.25 151.84C518.16 117.04 552.93 82.1 587.83 47.29L587.84 47.2999Z" fill="#6FC2B3"/>
  </g>
</svg>
